<mxfile host="Electron" modified="2023-10-20T23:00:40.889Z" agent="Mozilla/5.0 (Windows NT 10.0; Win64; x64) AppleWebKit/537.36 (KHTML, like Gecko) draw.io/21.7.5 Chrome/114.0.5735.289 Electron/25.8.1 Safari/537.36" etag="ZdRLl1qW0reGZ4fGanh3" version="21.7.5" type="device">
  <diagram id="jUayVkewlP1I81ErNldq" name="Page-1">
    <mxGraphModel dx="576" dy="333" grid="1" gridSize="10" guides="1" tooltips="1" connect="1" arrows="1" fold="1" page="1" pageScale="1" pageWidth="850" pageHeight="1100" math="0" shadow="0">
      <root>
        <mxCell id="0" />
        <mxCell id="1" parent="0" />
        <mxCell id="3ciIOb_fd87zuj7kB4uY-1" value="" style="html=1;outlineConnect=0;fillColor=#CCCCCC;strokeColor=#6881B3;gradientColor=none;gradientDirection=north;strokeWidth=2;shape=mxgraph.networks.cloud;fontColor=#ffffff;" parent="1" vertex="1">
          <mxGeometry x="325" y="10" width="200" height="120" as="geometry" />
        </mxCell>
        <mxCell id="3ciIOb_fd87zuj7kB4uY-2" value="" style="fontColor=#0066CC;verticalAlign=top;verticalLabelPosition=bottom;labelPosition=center;align=center;html=1;outlineConnect=0;fillColor=#CCCCCC;strokeColor=#6881B3;gradientColor=none;gradientDirection=north;strokeWidth=2;shape=mxgraph.networks.router;" parent="1" vertex="1">
          <mxGeometry x="340" y="190" width="170" height="50" as="geometry" />
        </mxCell>
        <mxCell id="3ciIOb_fd87zuj7kB4uY-3" value="" style="endArrow=classic;startArrow=classic;html=1;rounded=0;entryX=0.5;entryY=1;entryDx=0;entryDy=0;entryPerimeter=0;exitX=0.5;exitY=0;exitDx=0;exitDy=0;exitPerimeter=0;" parent="1" source="3ciIOb_fd87zuj7kB4uY-2" target="3ciIOb_fd87zuj7kB4uY-1" edge="1">
          <mxGeometry width="50" height="50" relative="1" as="geometry">
            <mxPoint x="570" y="220" as="sourcePoint" />
            <mxPoint x="620" y="170" as="targetPoint" />
          </mxGeometry>
        </mxCell>
        <mxCell id="3ciIOb_fd87zuj7kB4uY-4" value="Router" style="text;html=1;strokeColor=none;fillColor=none;align=center;verticalAlign=middle;whiteSpace=wrap;rounded=0;" parent="1" vertex="1">
          <mxGeometry x="510" y="195" width="90" height="40" as="geometry" />
        </mxCell>
        <mxCell id="3ciIOb_fd87zuj7kB4uY-5" value="" style="fontColor=#0066CC;verticalAlign=top;verticalLabelPosition=bottom;labelPosition=center;align=center;html=1;outlineConnect=0;fillColor=#CCCCCC;strokeColor=#6881B3;gradientColor=none;gradientDirection=north;strokeWidth=2;shape=mxgraph.networks.firewall;" parent="1" vertex="1">
          <mxGeometry x="375" y="290" width="100" height="100" as="geometry" />
        </mxCell>
        <mxCell id="3ciIOb_fd87zuj7kB4uY-6" value="" style="endArrow=classic;startArrow=classic;html=1;rounded=0;entryX=0.5;entryY=1;entryDx=0;entryDy=0;entryPerimeter=0;exitX=0.5;exitY=0;exitDx=0;exitDy=0;exitPerimeter=0;" parent="1" source="3ciIOb_fd87zuj7kB4uY-5" target="3ciIOb_fd87zuj7kB4uY-2" edge="1">
          <mxGeometry width="50" height="50" relative="1" as="geometry">
            <mxPoint x="540" y="320" as="sourcePoint" />
            <mxPoint x="590" y="270" as="targetPoint" />
          </mxGeometry>
        </mxCell>
        <mxCell id="3ciIOb_fd87zuj7kB4uY-7" value="Firewall" style="text;html=1;strokeColor=none;fillColor=none;align=center;verticalAlign=middle;whiteSpace=wrap;rounded=0;" parent="1" vertex="1">
          <mxGeometry x="480" y="320" width="60" height="30" as="geometry" />
        </mxCell>
        <mxCell id="3ciIOb_fd87zuj7kB4uY-8" value="Internet/ISP Provider" style="text;html=1;strokeColor=none;fillColor=none;align=center;verticalAlign=middle;whiteSpace=wrap;rounded=0;" parent="1" vertex="1">
          <mxGeometry x="520" y="80" width="130" height="40" as="geometry" />
        </mxCell>
        <mxCell id="3ciIOb_fd87zuj7kB4uY-9" value="" style="fontColor=#0066CC;verticalAlign=top;verticalLabelPosition=bottom;labelPosition=center;align=center;html=1;outlineConnect=0;fillColor=#CCCCCC;strokeColor=#6881B3;gradientColor=none;gradientDirection=north;strokeWidth=2;shape=mxgraph.networks.switch;" parent="1" vertex="1">
          <mxGeometry x="375" y="450" width="100" height="30" as="geometry" />
        </mxCell>
        <mxCell id="3ciIOb_fd87zuj7kB4uY-10" value="" style="endArrow=classic;startArrow=classic;html=1;rounded=0;entryX=0.5;entryY=1;entryDx=0;entryDy=0;entryPerimeter=0;exitX=0.5;exitY=0;exitDx=0;exitDy=0;exitPerimeter=0;" parent="1" source="3ciIOb_fd87zuj7kB4uY-9" target="3ciIOb_fd87zuj7kB4uY-5" edge="1">
          <mxGeometry width="50" height="50" relative="1" as="geometry">
            <mxPoint x="540" y="510" as="sourcePoint" />
            <mxPoint x="590" y="460" as="targetPoint" />
          </mxGeometry>
        </mxCell>
        <mxCell id="3ciIOb_fd87zuj7kB4uY-11" value="Switch" style="text;html=1;strokeColor=none;fillColor=none;align=center;verticalAlign=middle;whiteSpace=wrap;rounded=0;" parent="1" vertex="1">
          <mxGeometry x="480" y="450" width="60" height="30" as="geometry" />
        </mxCell>
        <mxCell id="3ciIOb_fd87zuj7kB4uY-12" value="" style="fontColor=#0066CC;verticalAlign=top;verticalLabelPosition=bottom;labelPosition=center;align=center;html=1;outlineConnect=0;fillColor=#CCCCCC;strokeColor=#6881B3;gradientColor=none;gradientDirection=north;strokeWidth=2;shape=mxgraph.networks.wireless_hub;" parent="1" vertex="1">
          <mxGeometry x="670" y="500" width="100" height="85" as="geometry" />
        </mxCell>
        <mxCell id="3ciIOb_fd87zuj7kB4uY-13" value="" style="fontColor=#0066CC;verticalAlign=top;verticalLabelPosition=bottom;labelPosition=center;align=center;html=1;outlineConnect=0;fillColor=#CCCCCC;strokeColor=#6881B3;gradientColor=none;gradientDirection=north;strokeWidth=2;shape=mxgraph.networks.wireless_hub;" parent="1" vertex="1">
          <mxGeometry x="94" y="500" width="100" height="85" as="geometry" />
        </mxCell>
        <mxCell id="3ciIOb_fd87zuj7kB4uY-14" value="" style="fontColor=#0066CC;verticalAlign=top;verticalLabelPosition=bottom;labelPosition=center;align=center;html=1;outlineConnect=0;fillColor=#CCCCCC;strokeColor=#6881B3;gradientColor=none;gradientDirection=north;strokeWidth=2;shape=mxgraph.networks.wireless_hub;" parent="1" vertex="1">
          <mxGeometry x="670" y="610" width="100" height="85" as="geometry" />
        </mxCell>
        <mxCell id="3ciIOb_fd87zuj7kB4uY-15" value="" style="fontColor=#0066CC;verticalAlign=top;verticalLabelPosition=bottom;labelPosition=center;align=center;html=1;outlineConnect=0;fillColor=#CCCCCC;strokeColor=#6881B3;gradientColor=none;gradientDirection=north;strokeWidth=2;shape=mxgraph.networks.wireless_hub;" parent="1" vertex="1">
          <mxGeometry x="90" y="610" width="100" height="85" as="geometry" />
        </mxCell>
        <mxCell id="3ciIOb_fd87zuj7kB4uY-18" value="" style="endArrow=classic;startArrow=classic;html=1;sketch=0;entryX=0.5;entryY=1;entryDx=0;entryDy=0;entryPerimeter=0;exitX=1;exitY=0.7;exitDx=0;exitDy=0;exitPerimeter=0;edgeStyle=orthogonalEdgeStyle;elbow=vertical;" parent="1" source="3ciIOb_fd87zuj7kB4uY-13" target="3ciIOb_fd87zuj7kB4uY-9" edge="1">
          <mxGeometry width="50" height="50" relative="1" as="geometry">
            <mxPoint x="90" y="470" as="sourcePoint" />
            <mxPoint x="370" y="550" as="targetPoint" />
          </mxGeometry>
        </mxCell>
        <mxCell id="3ciIOb_fd87zuj7kB4uY-19" value="" style="endArrow=classic;startArrow=classic;html=1;sketch=0;elbow=vertical;entryX=0.5;entryY=1;entryDx=0;entryDy=0;entryPerimeter=0;edgeStyle=orthogonalEdgeStyle;exitX=1;exitY=0.7;exitDx=0;exitDy=0;exitPerimeter=0;" parent="1" source="3ciIOb_fd87zuj7kB4uY-15" target="3ciIOb_fd87zuj7kB4uY-9" edge="1">
          <mxGeometry width="50" height="50" relative="1" as="geometry">
            <mxPoint x="440" y="670" as="sourcePoint" />
            <mxPoint x="490" y="620" as="targetPoint" />
          </mxGeometry>
        </mxCell>
        <mxCell id="3ciIOb_fd87zuj7kB4uY-20" value="" style="endArrow=classic;startArrow=classic;html=1;sketch=0;elbow=vertical;entryX=0.5;entryY=1;entryDx=0;entryDy=0;entryPerimeter=0;exitX=0;exitY=0.7;exitDx=0;exitDy=0;exitPerimeter=0;edgeStyle=orthogonalEdgeStyle;" parent="1" source="3ciIOb_fd87zuj7kB4uY-12" target="3ciIOb_fd87zuj7kB4uY-9" edge="1">
          <mxGeometry width="50" height="50" relative="1" as="geometry">
            <mxPoint x="660" y="530" as="sourcePoint" />
            <mxPoint x="710" y="480" as="targetPoint" />
          </mxGeometry>
        </mxCell>
        <mxCell id="3ciIOb_fd87zuj7kB4uY-21" value="" style="endArrow=classic;startArrow=classic;html=1;sketch=0;elbow=vertical;entryX=0.5;entryY=1;entryDx=0;entryDy=0;entryPerimeter=0;edgeStyle=orthogonalEdgeStyle;exitX=0;exitY=0.7;exitDx=0;exitDy=0;exitPerimeter=0;" parent="1" source="3ciIOb_fd87zuj7kB4uY-14" target="3ciIOb_fd87zuj7kB4uY-9" edge="1">
          <mxGeometry width="50" height="50" relative="1" as="geometry">
            <mxPoint x="450" y="680" as="sourcePoint" />
            <mxPoint x="500" y="630" as="targetPoint" />
          </mxGeometry>
        </mxCell>
        <mxCell id="3ciIOb_fd87zuj7kB4uY-22" value="Access Point" style="text;html=1;strokeColor=none;fillColor=none;align=center;verticalAlign=middle;whiteSpace=wrap;rounded=0;" parent="1" vertex="1">
          <mxGeometry x="770" y="555" width="80" height="30" as="geometry" />
        </mxCell>
        <mxCell id="3ciIOb_fd87zuj7kB4uY-23" value="Access Point" style="text;html=1;strokeColor=none;fillColor=none;align=center;verticalAlign=middle;whiteSpace=wrap;rounded=0;" parent="1" vertex="1">
          <mxGeometry x="770" y="665" width="80" height="30" as="geometry" />
        </mxCell>
        <mxCell id="3ciIOb_fd87zuj7kB4uY-24" value="Access Point" style="text;html=1;strokeColor=none;fillColor=none;align=center;verticalAlign=middle;whiteSpace=wrap;rounded=0;" parent="1" vertex="1">
          <mxGeometry x="10" y="550" width="80" height="30" as="geometry" />
        </mxCell>
        <mxCell id="3ciIOb_fd87zuj7kB4uY-25" value="Access Point" style="text;html=1;strokeColor=none;fillColor=none;align=center;verticalAlign=middle;whiteSpace=wrap;rounded=0;" parent="1" vertex="1">
          <mxGeometry x="10" y="665" width="80" height="30" as="geometry" />
        </mxCell>
        <mxCell id="3ciIOb_fd87zuj7kB4uY-26" value="" style="fontColor=#0066CC;verticalAlign=top;verticalLabelPosition=bottom;labelPosition=center;align=center;html=1;outlineConnect=0;fillColor=#CCCCCC;strokeColor=#6881B3;gradientColor=none;gradientDirection=north;strokeWidth=2;shape=mxgraph.networks.pc;rounded=0;sketch=0;" parent="1" vertex="1">
          <mxGeometry x="106" y="828" width="70" height="50" as="geometry" />
        </mxCell>
        <mxCell id="3ciIOb_fd87zuj7kB4uY-27" value="" style="fontColor=#0066CC;verticalAlign=top;verticalLabelPosition=bottom;labelPosition=center;align=center;html=1;outlineConnect=0;fillColor=#CCCCCC;strokeColor=#6881B3;gradientColor=none;gradientDirection=north;strokeWidth=2;shape=mxgraph.networks.pc;rounded=0;sketch=0;" parent="1" vertex="1">
          <mxGeometry x="188" y="828" width="70" height="50" as="geometry" />
        </mxCell>
        <mxCell id="3ciIOb_fd87zuj7kB4uY-28" value="" style="fontColor=#0066CC;verticalAlign=top;verticalLabelPosition=bottom;labelPosition=center;align=center;html=1;outlineConnect=0;fillColor=#CCCCCC;strokeColor=#6881B3;gradientColor=none;gradientDirection=north;strokeWidth=2;shape=mxgraph.networks.pc;rounded=0;sketch=0;" parent="1" vertex="1">
          <mxGeometry x="269" y="828" width="70" height="50" as="geometry" />
        </mxCell>
        <mxCell id="3ciIOb_fd87zuj7kB4uY-29" value="" style="fontColor=#0066CC;verticalAlign=top;verticalLabelPosition=bottom;labelPosition=center;align=center;html=1;outlineConnect=0;fillColor=#CCCCCC;strokeColor=#6881B3;gradientColor=none;gradientDirection=north;strokeWidth=2;shape=mxgraph.networks.pc;rounded=0;sketch=0;" parent="1" vertex="1">
          <mxGeometry x="34" y="890" width="70" height="50" as="geometry" />
        </mxCell>
        <mxCell id="3ciIOb_fd87zuj7kB4uY-30" value="" style="fontColor=#0066CC;verticalAlign=top;verticalLabelPosition=bottom;labelPosition=center;align=center;html=1;outlineConnect=0;fillColor=#CCCCCC;strokeColor=#6881B3;gradientColor=none;gradientDirection=north;strokeWidth=2;shape=mxgraph.networks.pc;rounded=0;sketch=0;" parent="1" vertex="1">
          <mxGeometry x="760" y="890" width="70" height="50" as="geometry" />
        </mxCell>
        <mxCell id="3ciIOb_fd87zuj7kB4uY-31" value="" style="fontColor=#0066CC;verticalAlign=top;verticalLabelPosition=bottom;labelPosition=center;align=center;html=1;outlineConnect=0;fillColor=#CCCCCC;strokeColor=#6881B3;gradientColor=none;gradientDirection=north;strokeWidth=2;shape=mxgraph.networks.pc;rounded=0;sketch=0;" parent="1" vertex="1">
          <mxGeometry x="515" y="827" width="70" height="50" as="geometry" />
        </mxCell>
        <mxCell id="3ciIOb_fd87zuj7kB4uY-32" value="" style="fontColor=#0066CC;verticalAlign=top;verticalLabelPosition=bottom;labelPosition=center;align=center;html=1;outlineConnect=0;fillColor=#CCCCCC;strokeColor=#6881B3;gradientColor=none;gradientDirection=north;strokeWidth=2;shape=mxgraph.networks.pc;rounded=0;sketch=0;" parent="1" vertex="1">
          <mxGeometry x="596" y="827" width="70" height="50" as="geometry" />
        </mxCell>
        <mxCell id="3ciIOb_fd87zuj7kB4uY-33" value="" style="fontColor=#0066CC;verticalAlign=top;verticalLabelPosition=bottom;labelPosition=center;align=center;html=1;outlineConnect=0;fillColor=#CCCCCC;strokeColor=#6881B3;gradientColor=none;gradientDirection=north;strokeWidth=2;shape=mxgraph.networks.pc;rounded=0;sketch=0;fontStyle=1" parent="1" vertex="1">
          <mxGeometry x="678" y="827" width="70" height="50" as="geometry" />
        </mxCell>
        <mxCell id="3ciIOb_fd87zuj7kB4uY-34" value="" style="fontColor=#0066CC;verticalAlign=top;verticalLabelPosition=bottom;labelPosition=center;align=center;html=1;outlineConnect=0;fillColor=#CCCCCC;strokeColor=#6881B3;gradientColor=none;gradientDirection=north;strokeWidth=2;shape=mxgraph.networks.pc;rounded=0;sketch=0;fontStyle=1" parent="1" vertex="1">
          <mxGeometry x="760" y="958" width="70" height="50" as="geometry" />
        </mxCell>
        <mxCell id="3ciIOb_fd87zuj7kB4uY-35" value="" style="fontColor=#0066CC;verticalAlign=top;verticalLabelPosition=bottom;labelPosition=center;align=center;html=1;outlineConnect=0;fillColor=#CCCCCC;strokeColor=#6881B3;gradientColor=none;gradientDirection=north;strokeWidth=2;shape=mxgraph.networks.pc;rounded=0;sketch=0;fontStyle=1" parent="1" vertex="1">
          <mxGeometry x="34" y="958" width="70" height="50" as="geometry" />
        </mxCell>
        <mxCell id="3ciIOb_fd87zuj7kB4uY-45" value="" style="fontColor=#0066CC;verticalAlign=top;verticalLabelPosition=bottom;labelPosition=center;align=center;html=1;outlineConnect=0;fillColor=#CCCCCC;strokeColor=#6881B3;gradientColor=none;gradientDirection=north;strokeWidth=2;shape=mxgraph.networks.pc;rounded=0;sketch=0;" parent="1" vertex="1">
          <mxGeometry x="104" y="1150" width="70" height="50" as="geometry" />
        </mxCell>
        <mxCell id="3ciIOb_fd87zuj7kB4uY-46" value="" style="fontColor=#0066CC;verticalAlign=top;verticalLabelPosition=bottom;labelPosition=center;align=center;html=1;outlineConnect=0;fillColor=#CCCCCC;strokeColor=#6881B3;gradientColor=none;gradientDirection=north;strokeWidth=2;shape=mxgraph.networks.pc;rounded=0;sketch=0;" parent="1" vertex="1">
          <mxGeometry x="186" y="1150" width="70" height="50" as="geometry" />
        </mxCell>
        <mxCell id="3ciIOb_fd87zuj7kB4uY-47" value="" style="fontColor=#0066CC;verticalAlign=top;verticalLabelPosition=bottom;labelPosition=center;align=center;html=1;outlineConnect=0;fillColor=#CCCCCC;strokeColor=#6881B3;gradientColor=none;gradientDirection=north;strokeWidth=2;shape=mxgraph.networks.pc;rounded=0;sketch=0;" parent="1" vertex="1">
          <mxGeometry x="268" y="1150" width="70" height="50" as="geometry" />
        </mxCell>
        <mxCell id="3ciIOb_fd87zuj7kB4uY-48" value="" style="fontColor=#0066CC;verticalAlign=top;verticalLabelPosition=bottom;labelPosition=center;align=center;html=1;outlineConnect=0;fillColor=#CCCCCC;strokeColor=#6881B3;gradientColor=none;gradientDirection=north;strokeWidth=2;shape=mxgraph.networks.pc;rounded=0;sketch=0;" parent="1" vertex="1">
          <mxGeometry x="350" y="1150" width="70" height="50" as="geometry" />
        </mxCell>
        <mxCell id="3ciIOb_fd87zuj7kB4uY-49" value="" style="fontColor=#0066CC;verticalAlign=top;verticalLabelPosition=bottom;labelPosition=center;align=center;html=1;outlineConnect=0;fillColor=#CCCCCC;strokeColor=#6881B3;gradientColor=none;gradientDirection=north;strokeWidth=2;shape=mxgraph.networks.pc;rounded=0;sketch=0;" parent="1" vertex="1">
          <mxGeometry x="431" y="1150" width="70" height="50" as="geometry" />
        </mxCell>
        <mxCell id="3ciIOb_fd87zuj7kB4uY-50" value="" style="fontColor=#0066CC;verticalAlign=top;verticalLabelPosition=bottom;labelPosition=center;align=center;html=1;outlineConnect=0;fillColor=#CCCCCC;strokeColor=#6881B3;gradientColor=none;gradientDirection=north;strokeWidth=2;shape=mxgraph.networks.pc;rounded=0;sketch=0;" parent="1" vertex="1">
          <mxGeometry x="513" y="1150" width="70" height="50" as="geometry" />
        </mxCell>
        <mxCell id="3ciIOb_fd87zuj7kB4uY-51" value="" style="fontColor=#0066CC;verticalAlign=top;verticalLabelPosition=bottom;labelPosition=center;align=center;html=1;outlineConnect=0;fillColor=#CCCCCC;strokeColor=#6881B3;gradientColor=none;gradientDirection=north;strokeWidth=2;shape=mxgraph.networks.pc;rounded=0;sketch=0;" parent="1" vertex="1">
          <mxGeometry x="595" y="1150" width="70" height="50" as="geometry" />
        </mxCell>
        <mxCell id="3ciIOb_fd87zuj7kB4uY-52" value="" style="fontColor=#0066CC;verticalAlign=top;verticalLabelPosition=bottom;labelPosition=center;align=center;html=1;outlineConnect=0;fillColor=#CCCCCC;strokeColor=#6881B3;gradientColor=none;gradientDirection=north;strokeWidth=2;shape=mxgraph.networks.pc;rounded=0;sketch=0;fontStyle=1" parent="1" vertex="1">
          <mxGeometry x="677" y="1150" width="70" height="50" as="geometry" />
        </mxCell>
        <mxCell id="3ciIOb_fd87zuj7kB4uY-55" value="" style="endArrow=classic;startArrow=classic;html=1;sketch=0;entryX=0.5;entryY=1;entryDx=0;entryDy=0;entryPerimeter=0;edgeStyle=orthogonalEdgeStyle;elbow=vertical;" parent="1" source="3ciIOb_fd87zuj7kB4uY-28" target="3ciIOb_fd87zuj7kB4uY-9" edge="1">
          <mxGeometry width="50" height="50" relative="1" as="geometry">
            <mxPoint x="350" y="850" as="sourcePoint" />
            <mxPoint x="400" y="800" as="targetPoint" />
          </mxGeometry>
        </mxCell>
        <mxCell id="3ciIOb_fd87zuj7kB4uY-57" value="" style="endArrow=classic;startArrow=classic;html=1;sketch=0;entryX=0.5;entryY=1;entryDx=0;entryDy=0;entryPerimeter=0;exitX=0.5;exitY=0.07;exitDx=0;exitDy=0;exitPerimeter=0;edgeStyle=elbowEdgeStyle;elbow=vertical;jumpStyle=line;jumpSize=14;" parent="1" source="3ciIOb_fd87zuj7kB4uY-27" target="3ciIOb_fd87zuj7kB4uY-9" edge="1">
          <mxGeometry width="50" height="50" relative="1" as="geometry">
            <mxPoint x="290" y="790" as="sourcePoint" />
            <mxPoint x="340" y="740" as="targetPoint" />
            <Array as="points">
              <mxPoint x="430" y="730" />
              <mxPoint x="330" y="610" />
            </Array>
          </mxGeometry>
        </mxCell>
        <mxCell id="3ciIOb_fd87zuj7kB4uY-60" value="" style="endArrow=classic;html=1;sketch=0;elbow=vertical;jumpStyle=none;jumpSize=14;entryX=0.5;entryY=0.07;entryDx=0;entryDy=0;entryPerimeter=0;edgeStyle=orthogonalEdgeStyle;" parent="1" target="3ciIOb_fd87zuj7kB4uY-26" edge="1">
          <mxGeometry width="50" height="50" relative="1" as="geometry">
            <mxPoint x="250" y="730" as="sourcePoint" />
            <mxPoint x="170" y="770" as="targetPoint" />
            <Array as="points">
              <mxPoint x="141" y="730" />
            </Array>
          </mxGeometry>
        </mxCell>
        <mxCell id="3ciIOb_fd87zuj7kB4uY-61" value="" style="endArrow=classic;startArrow=classic;html=1;sketch=0;jumpStyle=none;jumpSize=14;entryX=0.5;entryY=1;entryDx=0;entryDy=0;entryPerimeter=0;edgeStyle=orthogonalEdgeStyle;elbow=vertical;exitX=0;exitY=0.5;exitDx=0;exitDy=0;exitPerimeter=0;" parent="1" source="3ciIOb_fd87zuj7kB4uY-31" target="3ciIOb_fd87zuj7kB4uY-9" edge="1">
          <mxGeometry width="50" height="50" relative="1" as="geometry">
            <mxPoint x="460" y="840" as="sourcePoint" />
            <mxPoint x="540" y="740" as="targetPoint" />
          </mxGeometry>
        </mxCell>
        <mxCell id="3ciIOb_fd87zuj7kB4uY-63" value="" style="endArrow=classic;startArrow=classic;html=1;sketch=0;entryX=0.5;entryY=1;entryDx=0;entryDy=0;entryPerimeter=0;exitX=0.5;exitY=0.07;exitDx=0;exitDy=0;exitPerimeter=0;edgeStyle=elbowEdgeStyle;elbow=vertical;jumpStyle=none;jumpSize=14;" parent="1" edge="1">
          <mxGeometry width="50" height="50" relative="1" as="geometry">
            <mxPoint x="627.0000000000005" y="831.4999999999998" as="sourcePoint" />
            <mxPoint x="425.00000000000045" y="480" as="targetPoint" />
            <Array as="points">
              <mxPoint x="420.00000000000045" y="730" />
              <mxPoint x="520.0000000000005" y="610" />
            </Array>
          </mxGeometry>
        </mxCell>
        <mxCell id="3ciIOb_fd87zuj7kB4uY-64" value="" style="endArrow=classic;html=1;sketch=0;elbow=vertical;jumpStyle=none;jumpSize=14;edgeStyle=orthogonalEdgeStyle;entryX=0.5;entryY=0.07;entryDx=0;entryDy=0;entryPerimeter=0;" parent="1" target="3ciIOb_fd87zuj7kB4uY-33" edge="1">
          <mxGeometry width="50" height="50" relative="1" as="geometry">
            <mxPoint x="610" y="730" as="sourcePoint" />
            <mxPoint x="740" y="820" as="targetPoint" />
          </mxGeometry>
        </mxCell>
        <mxCell id="3ciIOb_fd87zuj7kB4uY-65" value="" style="endArrow=classic;startArrow=classic;html=1;sketch=0;elbow=vertical;jumpStyle=none;jumpSize=14;edgeStyle=orthogonalEdgeStyle;entryX=0.5;entryY=1;entryDx=0;entryDy=0;entryPerimeter=0;exitX=1;exitY=0.5;exitDx=0;exitDy=0;exitPerimeter=0;" parent="1" source="3ciIOb_fd87zuj7kB4uY-29" target="3ciIOb_fd87zuj7kB4uY-9" edge="1">
          <mxGeometry width="50" height="50" relative="1" as="geometry">
            <mxPoint x="400" y="960" as="sourcePoint" />
            <mxPoint x="450" y="910" as="targetPoint" />
            <Array as="points">
              <mxPoint x="425" y="915" />
            </Array>
          </mxGeometry>
        </mxCell>
        <mxCell id="3ciIOb_fd87zuj7kB4uY-66" value="" style="endArrow=classic;startArrow=classic;html=1;sketch=0;jumpStyle=none;jumpSize=14;entryX=0.5;entryY=1;entryDx=0;entryDy=0;entryPerimeter=0;edgeStyle=orthogonalEdgeStyle;exitX=1;exitY=0.5;exitDx=0;exitDy=0;exitPerimeter=0;" parent="1" source="3ciIOb_fd87zuj7kB4uY-35" target="3ciIOb_fd87zuj7kB4uY-9" edge="1">
          <mxGeometry width="50" height="50" relative="1" as="geometry">
            <mxPoint x="400" y="1030" as="sourcePoint" />
            <mxPoint x="450" y="980" as="targetPoint" />
          </mxGeometry>
        </mxCell>
        <mxCell id="3ciIOb_fd87zuj7kB4uY-67" value="" style="endArrow=classic;startArrow=classic;html=1;sketch=0;jumpStyle=none;jumpSize=14;entryX=0.5;entryY=1;entryDx=0;entryDy=0;entryPerimeter=0;edgeStyle=orthogonalEdgeStyle;" parent="1" source="3ciIOb_fd87zuj7kB4uY-30" target="3ciIOb_fd87zuj7kB4uY-9" edge="1">
          <mxGeometry width="50" height="50" relative="1" as="geometry">
            <mxPoint x="440" y="1010" as="sourcePoint" />
            <mxPoint x="490" y="960" as="targetPoint" />
          </mxGeometry>
        </mxCell>
        <mxCell id="3ciIOb_fd87zuj7kB4uY-68" value="" style="endArrow=classic;startArrow=classic;html=1;sketch=0;jumpStyle=none;jumpSize=14;entryX=0.5;entryY=1;entryDx=0;entryDy=0;entryPerimeter=0;edgeStyle=orthogonalEdgeStyle;exitX=0;exitY=0.5;exitDx=0;exitDy=0;exitPerimeter=0;" parent="1" source="3ciIOb_fd87zuj7kB4uY-34" target="3ciIOb_fd87zuj7kB4uY-9" edge="1">
          <mxGeometry width="50" height="50" relative="1" as="geometry">
            <mxPoint x="440" y="1010" as="sourcePoint" />
            <mxPoint x="490" y="960" as="targetPoint" />
          </mxGeometry>
        </mxCell>
        <mxCell id="3ciIOb_fd87zuj7kB4uY-70" value="" style="endArrow=classic;startArrow=classic;html=1;sketch=0;jumpStyle=none;jumpSize=14;entryX=0.5;entryY=1;entryDx=0;entryDy=0;entryPerimeter=0;edgeStyle=elbowEdgeStyle;elbow=vertical;" parent="1" source="3ciIOb_fd87zuj7kB4uY-45" target="3ciIOb_fd87zuj7kB4uY-9" edge="1">
          <mxGeometry width="50" height="50" relative="1" as="geometry">
            <mxPoint x="150" y="1130" as="sourcePoint" />
            <mxPoint x="370" y="1020" as="targetPoint" />
            <Array as="points">
              <mxPoint x="290" y="1040" />
            </Array>
          </mxGeometry>
        </mxCell>
        <mxCell id="3ciIOb_fd87zuj7kB4uY-71" value="" style="endArrow=classic;startArrow=classic;html=1;sketch=0;elbow=vertical;jumpStyle=none;jumpSize=14;entryX=0.5;entryY=1;entryDx=0;entryDy=0;entryPerimeter=0;edgeStyle=elbowEdgeStyle;" parent="1" source="3ciIOb_fd87zuj7kB4uY-52" target="3ciIOb_fd87zuj7kB4uY-9" edge="1">
          <mxGeometry width="50" height="50" relative="1" as="geometry">
            <mxPoint x="700" y="1070" as="sourcePoint" />
            <mxPoint x="530" y="1030" as="targetPoint" />
            <Array as="points">
              <mxPoint x="590" y="1040" />
            </Array>
          </mxGeometry>
        </mxCell>
        <mxCell id="3ciIOb_fd87zuj7kB4uY-72" value="" style="endArrow=classic;startArrow=classic;html=1;sketch=0;elbow=vertical;jumpStyle=none;jumpSize=14;edgeStyle=elbowEdgeStyle;exitX=0.5;exitY=0.07;exitDx=0;exitDy=0;exitPerimeter=0;" parent="1" source="3ciIOb_fd87zuj7kB4uY-51" target="3ciIOb_fd87zuj7kB4uY-9" edge="1">
          <mxGeometry width="50" height="50" relative="1" as="geometry">
            <mxPoint x="440" y="1140" as="sourcePoint" />
            <mxPoint x="430" y="490" as="targetPoint" />
            <Array as="points">
              <mxPoint x="520" y="1040" />
            </Array>
          </mxGeometry>
        </mxCell>
        <mxCell id="3ciIOb_fd87zuj7kB4uY-73" value="" style="endArrow=classic;startArrow=classic;html=1;sketch=0;elbow=vertical;jumpStyle=none;jumpSize=14;edgeStyle=elbowEdgeStyle;entryX=0.5;entryY=1;entryDx=0;entryDy=0;entryPerimeter=0;exitX=0.5;exitY=0.07;exitDx=0;exitDy=0;exitPerimeter=0;" parent="1" source="3ciIOb_fd87zuj7kB4uY-46" target="3ciIOb_fd87zuj7kB4uY-9" edge="1">
          <mxGeometry width="50" height="50" relative="1" as="geometry">
            <mxPoint x="350" y="1130" as="sourcePoint" />
            <mxPoint x="400" y="1080" as="targetPoint" />
            <Array as="points">
              <mxPoint x="340" y="1040" />
            </Array>
          </mxGeometry>
        </mxCell>
        <mxCell id="3ciIOb_fd87zuj7kB4uY-74" value="" style="endArrow=classic;startArrow=classic;html=1;sketch=0;elbow=vertical;jumpStyle=none;jumpSize=14;edgeStyle=elbowEdgeStyle;entryX=0.5;entryY=1;entryDx=0;entryDy=0;entryPerimeter=0;exitX=0.5;exitY=0.07;exitDx=0;exitDy=0;exitPerimeter=0;" parent="1" source="3ciIOb_fd87zuj7kB4uY-47" target="3ciIOb_fd87zuj7kB4uY-9" edge="1">
          <mxGeometry width="50" height="50" relative="1" as="geometry">
            <mxPoint x="380" y="1120" as="sourcePoint" />
            <mxPoint x="430" y="1070" as="targetPoint" />
            <Array as="points">
              <mxPoint x="340" y="1040" />
            </Array>
          </mxGeometry>
        </mxCell>
        <mxCell id="3ciIOb_fd87zuj7kB4uY-75" value="" style="endArrow=classic;startArrow=classic;html=1;sketch=0;elbow=vertical;jumpStyle=none;jumpSize=14;edgeStyle=elbowEdgeStyle;exitX=0.5;exitY=0.07;exitDx=0;exitDy=0;exitPerimeter=0;entryX=0.5;entryY=1;entryDx=0;entryDy=0;entryPerimeter=0;" parent="1" source="3ciIOb_fd87zuj7kB4uY-48" target="3ciIOb_fd87zuj7kB4uY-9" edge="1">
          <mxGeometry width="50" height="50" relative="1" as="geometry">
            <mxPoint x="390" y="1130" as="sourcePoint" />
            <mxPoint x="440" y="1080" as="targetPoint" />
            <Array as="points">
              <mxPoint x="400" y="1040" />
            </Array>
          </mxGeometry>
        </mxCell>
        <mxCell id="3ciIOb_fd87zuj7kB4uY-76" value="" style="endArrow=classic;startArrow=classic;html=1;sketch=0;elbow=vertical;jumpStyle=none;jumpSize=14;entryX=0.5;entryY=1;entryDx=0;entryDy=0;entryPerimeter=0;edgeStyle=elbowEdgeStyle;" parent="1" target="3ciIOb_fd87zuj7kB4uY-9" edge="1">
          <mxGeometry width="50" height="50" relative="1" as="geometry">
            <mxPoint x="548" y="1154" as="sourcePoint" />
            <mxPoint x="500" y="1090" as="targetPoint" />
            <Array as="points">
              <mxPoint x="500" y="1040" />
            </Array>
          </mxGeometry>
        </mxCell>
        <mxCell id="3ciIOb_fd87zuj7kB4uY-77" value="" style="endArrow=classic;startArrow=classic;html=1;sketch=0;elbow=vertical;jumpStyle=none;jumpSize=14;edgeStyle=elbowEdgeStyle;entryX=0.5;entryY=1;entryDx=0;entryDy=0;entryPerimeter=0;" parent="1" target="3ciIOb_fd87zuj7kB4uY-9" edge="1">
          <mxGeometry width="50" height="50" relative="1" as="geometry">
            <mxPoint x="466" y="1150" as="sourcePoint" />
            <mxPoint x="490" y="1080" as="targetPoint" />
            <Array as="points">
              <mxPoint x="460" y="1040" />
            </Array>
          </mxGeometry>
        </mxCell>
        <mxCell id="3ciIOb_fd87zuj7kB4uY-79" value="Dalton Murray" style="text;html=1;strokeColor=none;fillColor=none;align=center;verticalAlign=middle;whiteSpace=wrap;rounded=0;sketch=0;" parent="1" vertex="1">
          <mxGeometry x="740" y="1220" width="100" height="30" as="geometry" />
        </mxCell>
      </root>
    </mxGraphModel>
  </diagram>
</mxfile>
